PathFileType	4	(X/Y/Z)	C:\Users\Basilio\Documents\Thesis Gigler\squatting_fais\c3dfiles\076\SJ_pre1\markers_experimental.trc
DataRate	CameraRate	NumFrames	NumMarkers	Units	OrigDataRate	OrigDataStartFrame	OrigNumFrames
200.000000	200.000000	4	61	mm	200.000000	1072	1226
Frame#	Time	FHD			LBHD			RBHD			C7			T10			CLAV			LSHO			LUUPA			LMUPA			LDUPA			LLEP			LMEP			LRAD			LUL			LRFIN			RSHO			RUPA1			RMUPA			RDUPA			RLEP			RMEP			RRAD			RUL			RUFIN			LASI			RASI			USACR			LSACR			RSACR			LTHI1			LTHI2			LTHI3			LTHI4			LLFC			LMFC			LTIB1			LTIB2			LTIB3			LTIB4			LLMAL			LMMAL			LHEE			LMT1			LMT2			LMT5			RTHI			RTHI2			RTHI3			RTHI4			RLFC			RMFC			RTIB1			RTIB2			RTIB3			RTIB4			RLMAL			RMMAL			RHEE			RMT1			RMT2			RMT5			
		X1	Y1	Z1	X2	Y2	Z2	X3	Y3	Z3	X4	Y4	Z4	X5	Y5	Z5	X6	Y6	Z6	X7	Y7	Z7	X8	Y8	Z8	X9	Y9	Z9	X10	Y10	Z10	X11	Y11	Z11	X12	Y12	Z12	X13	Y13	Z13	X14	Y14	Z14	X15	Y15	Z15	X16	Y16	Z16	X17	Y17	Z17	X18	Y18	Z18	X19	Y19	Z19	X20	Y20	Z20	X21	Y21	Z21	X22	Y22	Z22	X23	Y23	Z23	X24	Y24	Z24	X25	Y25	Z25	X26	Y26	Z26	X27	Y27	Z27	X28	Y28	Z28	X29	Y29	Z29	X30	Y30	Z30	X31	Y31	Z31	X32	Y32	Z32	X33	Y33	Z33	X34	Y34	Z34	X35	Y35	Z35	X36	Y36	Z36	X37	Y37	Z37	X38	Y38	Z38	X39	Y39	Z39	X40	Y40	Z40	X41	Y41	Z41	X42	Y42	Z42	X43	Y43	Z43	X44	Y44	Z44	X45	Y45	Z45	X46	Y46	Z46	X47	Y47	Z47	X48	Y48	Z48	X49	Y49	Z49	X50	Y50	Z50	X51	Y51	Z51	X52	Y52	Z52	X53	Y53	Z53	X54	Y54	Z54	X55	Y55	Z55	X56	Y56	Z56	X57	Y57	Z57	X58	Y58	Z58	X59	Y59	Z59	X60	Y60	Z60	X61	Y61	Z61	

1073	5.36	-313.4980163574219	1581.660522460938	-798.9793090820315	-457.8336181640626	1550.8447265625	-908.484069824219	-453.8598632812501	1542.250366210938	-755.7231445312501	-526.0253906250001	1417.659423828125	-829.3933715820315	-534.2760620117189	1091.976440429688	-843.319030761719	-387.9152221679689	1343.155395507813	-836.7891845703127	-469.5433959960939	1365.205078125	-1009.788208007813	-485.2825317382814	1202.47021484375	-1131.989379882813	-463.994354248047	1160.453857421875	-1113.564697265625	-491.2882080078126	1141.8134765625	-1164.734130859375	-503.567840576172	1091.4638671875	-1190.248168945313	-577.2105102539064	1076.117797851563	-1145.3759765625	-477.7061767578126	908.738952636719	-1031.631225585938	-429.5087280273439	928.9280395507815	-1013.472351074219	-436.0918884277345	881.570983886719	-1073.417724609375	-449.4646301269532	1357.998413085938	-664.7409667968751	-486.2837219238282	1214.710083007813	-530.6874389648439	-452.8931579589845	1176.968627929688	-531.9966430664064	-492.9240112304689	1154.983764648438	-492.3031616210939	-485.2548217773439	1085.017211914063	-471.4002380371095	-556.6864013671876	1071.114868164063	-521.4844970703126	-468.4136962890626	915.552673339844	-644.6971435546876	-416.852020263672	934.232849121094	-659.6688842773439	-422.9281311035157	887.989929199219	-603.0698242187501	-368.3714294433594	910.966979980469	-946.918151855469	-361.0382385253907	918.0259399414065	-738.3513183593751	-531.1410522460939	985.3731079101565	-839.1055297851565	-539.6213989257814	955.9502563476565	-865.5967407226565	-537.2783813476564	957.1944580078127	-809.1113281250002	-453.988006591797	771.4030761718752	-1031.391845703125	-416.7138061523439	695.7150878906251	-1046.660034179688	-368.2872009277344	700.6877441406251	-1037.247436523438	-440.6757202148439	639.7767333984376	-1042.643432617188	-414.1641235351564	483.6962280273439	-1050.549072265625	-365.2553405761719	458.0328063964845	-945.4056396484377	-362.3616027832032	331.0635070800782	-1022.194274902344	-392.5034484863282	291.0875549316407	-1095.576049804688	-358.8964233398438	289.0456542968751	-1063.961059570313	-363.9664916992188	206.0385131835938	-1048.013305664063	-413.060760498047	84.9281692504883	-1123.923583984375	-381.2427368164063	90.91909027099611	-1043.425903320313	-459.7887268066407	41.06876754760743	-1076.108154296875	-251.2590637207032	65.45714569091798	-1073.684448242188	-247.6924896240235	66.80848693847658	-1113.208862304688	-269.5130615234376	50.38920974731447	-1161.549682617188	-461.2821044921876	672.1343994140626	-674.9901733398439	-430.0107727050782	613.9862670898439	-678.8933715820314	-395.6180725097657	614.5377807617189	-684.5878295898439	-462.9505310058595	540.3059082031251	-695.5015869140626	-470.0595703125001	477.4614562988282	-702.7860107421876	-441.4820556640626	474.7377319335939	-817.257507324219	-435.8421630859376	342.0220336914063	-726.1851196289064	-508.0578002929689	262.3774719238282	-707.6912841796876	-461.6112670898439	258.9815673828126	-715.8728637695314	-446.573944091797	214.3500976562501	-750.4049072265626	-514.7968139648439	75.60327911376955	-731.2777709960939	-481.4295043945314	90.98592376708986	-809.5490722656252	-559.7929077148439	49.78639984130861	-787.7500610351565	-353.5337524414063	51.04268264770509	-765.3140869140626	-358.4939270019532	55.07186126708986	-720.1315917968751	-394.5581359863282	35.00370025634766	-672.0267333984376	
1074	5.365	-312.5850524902344	1580.52978515625	-798.068542480469	-457.5245666503907	1551.240234375	-907.6243896484377	-453.2376708984376	1542.01318359375	-755.0737915039064	-526.0297241210939	1417.719482421875	-829.0209960937502	-534.3452758789064	1091.882568359375	-843.0305786132815	-388.1161193847657	1342.947509765625	-836.414489746094	-469.2680664062501	1364.999389648438	-1009.329284667969	-484.5705566406251	1202.260498046875	-1131.350463867188	-463.9896850585939	1160.296020507813	-1113.168579101563	-491.2742614746095	1141.75537109375	-1164.534912109375	-503.410614013672	1091.33056640625	-1190.034301757813	-577.1448974609376	1075.9873046875	-1145.161987304688	-477.6539916992189	908.5486450195315	-1031.332397460938	-429.580047607422	928.7774658203127	-1013.086120605469	-436.1406860351564	881.3934326171877	-1073.083251953125	-449.6698303222657	1357.759643554688	-664.4068603515626	-486.6745605468751	1214.662475585938	-530.2901000976564	-453.257049560547	1176.83642578125	-531.5099487304689	-493.4154663085939	1154.839599609375	-491.9364624023439	-485.6425170898439	1084.941772460938	-471.0454101562501	-557.0490722656251	1070.887573242188	-521.0756835937501	-468.1557617187501	915.528259277344	-644.3632812500001	-416.660614013672	934.163269042969	-659.3154296875001	-422.7972106933595	888.0359497070315	-602.6572265625001	-369.1958312988282	910.7420043945315	-946.236755371094	-360.8573303222657	917.966003417969	-738.0640258789064	-531.1779174804689	985.2822875976565	-838.7964477539065	-539.6081542968751	955.716735839844	-865.176696777344	-537.1878051757814	957.0513305664065	-808.7044677734377	-454.1741027832032	771.2825927734377	-1031.021362304688	-416.7817687988282	695.5572509765626	-1046.363647460938	-368.4569091796876	700.5593872070314	-1037.02734375	-440.7318115234376	639.6532592773439	-1042.333251953125	-414.3172302246095	483.704559326172	-1050.383178710938	-365.1560668945313	458.0227050781251	-945.2173461914065	-362.3252563476563	331.0713500976563	-1022.037902832031	-392.3476867675782	291.1762390136719	-1095.465942382813	-358.7627868652344	289.0694580078126	-1063.84521484375	-363.9197082519532	206.0314025878907	-1047.932373046875	-412.7876586914064	84.97531890869142	-1123.981567382813	-381.1536254882813	90.90467834472658	-1043.467651367188	-459.7490844726564	41.16724395751954	-1076.227172851563	-251.262435913086	65.2338333129883	-1073.255004882813	-247.5275573730469	66.43497467041017	-1112.8828125	-269.4714965820313	50.03509521484376	-1161.249877929688	-461.0250244140626	672.0966796875001	-674.6886596679689	-429.8045043945314	613.9777221679689	-678.8446655273439	-395.4144287109376	614.6046142578126	-684.6257324218751	-462.8520812988282	540.3052368164064	-695.3184204101564	-470.1275024414064	477.4666137695314	-702.5916137695314	-441.9119873046876	474.8867797851564	-817.1978149414065	-435.9728393554689	342.1044311523438	-726.2243041992189	-508.044891357422	262.4319152832032	-707.5576171875001	-461.6192932128907	259.0620727539063	-715.8041381835939	-446.651580810547	214.4329376220704	-750.4036254882814	-514.7731323242189	75.57052612304689	-731.2555541992189	-481.4134826660157	91.04072570800783	-809.5301513671877	-559.8613281250001	49.804500579834	-787.6680297851565	-353.5692443847657	51.022518157959	-765.3399658203126	-358.4966430664063	55.125057220459	-720.1362915039064	-394.5165405273439	35.07026672363282	-671.9746704101564	
1075	5.37	-311.5541381835938	1579.295532226563	-796.9001464843752	-457.0201416015626	1551.525512695313	-906.857849121094	-453.0297851562501	1541.506225585938	-754.7562866210939	-526.0971069335939	1417.697265625	-828.7016601562502	-534.3828125000001	1091.7841796875	-842.718200683594	-388.3164978027345	1342.70947265625	-836.0397949218752	-469.7026977539064	1364.982055664063	-1008.960144042969	-484.4798583984376	1202.16162109375	-1130.977172851563	-463.9443664550782	1160.132690429688	-1112.837890625	-491.0249938964845	1141.629760742188	-1164.245361328125	-503.3181762695314	1091.202392578125	-1189.818969726563	-577.0440063476564	1075.950927734375	-1144.949462890625	-477.9416503906251	908.3521728515627	-1031.12353515625	-429.6171264648439	928.7382812500002	-1012.812194824219	-436.0514221191407	881.3364257812502	-1072.743896484375	-450.015838623047	1357.49658203125	-664.0652465820314	-487.0404052734376	1214.513427734375	-529.9601440429689	-453.5972900390626	1176.735473632813	-531.0883178710939	-493.8875427246095	1154.605590820313	-491.5992736816407	-486.0991516113282	1084.857543945313	-470.6911621093751	-557.4359130859376	1070.734619140625	-520.8308715820314	-467.9973449707032	915.5871582031252	-644.0976562500001	-416.4874572753907	934.1033325195315	-659.0364990234376	-422.7503051757814	887.9907836914065	-602.3939208984376	-370.2280273437501	910.9305419921877	-946.3799438476565	-360.6966552734376	917.942321777344	-737.8530273437501	-531.1466674804689	985.1995849609377	-838.495300292969	-539.5469970703126	955.6114501953127	-864.8746337890627	-537.1321411132814	956.968200683594	-808.3836669921877	-453.7572631835939	771.019958496094	-1030.664916992188	-416.9542236328126	695.4787597656251	-1046.153564453125	-368.7480468750001	700.5574951171876	-1036.921020507813	-440.8518981933595	639.5184326171876	-1042.0498046875	-414.2177734375001	483.725555419922	-1050.211791992188	-365.0257263183594	458.041473388672	-945.1029052734377	-362.2004089355469	331.0177917480469	-1021.953063964844	-392.335174560547	291.1354980468751	-1095.342163085938	-358.5825805664063	289.1493835449219	-1063.708251953125	-363.7275390625001	206.0000915527344	-1047.874267578125	-412.511444091797	84.98601531982423	-1124.003540039063	-381.0809631347657	90.95874786376955	-1043.419677734375	-459.6694641113282	41.28646850585938	-1076.315673828125	-251.0916595458985	64.99988555908205	-1072.932373046875	-247.4259033203126	66.0845184326172	-1112.563232421875	-269.3033752441407	49.68801498413087	-1160.963012695313	-460.7565917968751	672.1063232421876	-674.3660278320314	-429.601287841797	613.9479980468751	-678.6992797851564	-395.302947998047	614.3957519531251	-684.6922607421876	-462.7434692382814	540.3299560546876	-695.0687255859376	-470.1691284179689	477.4476318359376	-702.5135498046876	-442.2164001464845	475.0122375488282	-817.147888183594	-436.0370483398439	342.1909790039063	-726.1992187500001	-507.9833984375001	262.4461669921876	-707.4433593750001	-461.6055908203126	259.1085815429688	-715.7993774414064	-446.7002563476564	214.5208435058594	-750.4127197265626	-514.7702636718751	75.61440277099611	-731.2506713867189	-481.4723205566407	91.07952880859376	-809.478942871094	-559.7491455078126	49.78066635131837	-787.6735839843752	-353.5534667968751	50.93408203125001	-765.3232421875001	-358.3666076660157	55.0751419067383	-720.1655273437501	-394.5025634765626	35.03713989257813	-672.0031127929689	
1076	5.375	-310.6685485839844	1578.294921875	-796.1555786132815	-456.1885681152345	1551.715576171875	-905.8436279296877	-452.5543212890626	1541.351440429688	-754.1751098632814	-526.0878295898439	1417.77099609375	-828.408386230469	-534.4663696289064	1091.671752929688	-842.463806152344	-388.4539184570314	1342.4794921875	-835.6240234375002	-469.700897216797	1364.997192382813	-1008.627380371094	-484.361053466797	1202.041625976563	-1130.679077148438	-463.8555297851564	1159.949584960938	-1112.48779296875	-490.8767700195314	1141.475952148438	-1163.966186523438	-503.2338256835939	1091.105834960938	-1189.605590820313	-576.9713745117189	1075.873413085938	-1144.797729492188	-477.9978027343751	908.2659912109377	-1030.8701171875	-429.6321105957032	928.5872802734377	-1012.538024902344	-436.0856323242189	881.2146606445315	-1072.461059570313	-450.283172607422	1357.273315429688	-663.7615356445314	-487.523406982422	1214.285522460938	-529.6127929687501	-453.9754333496095	1176.660888671875	-530.7427978515626	-494.2940063476564	1154.489013671875	-491.2124633789064	-486.4699096679689	1084.750122070313	-470.3618164062501	-557.6989135742189	1070.582763671875	-520.6094360351564	-467.8544311523439	915.568542480469	-643.8655395507814	-416.2750854492189	934.0391235351565	-658.7429809570314	-422.6703186035157	888.003112792969	-602.0694580078126	-369.2085876464844	910.6426391601565	-945.7615356445315	-360.5163269042969	917.8938598632815	-737.7047729492189	-531.0940551757814	985.1140136718752	-838.1631469726565	-539.5792846679689	955.570983886719	-864.535583496094	-537.1024780273439	956.9060058593752	-808.0930175781252	-454.4166564941407	771.0725097656252	-1030.498901367188	-416.9143371582032	695.3162841796876	-1045.981567382813	-368.7410888671876	700.4689941406251	-1036.697631835938	-440.7978820800782	639.3834838867189	-1041.756225585938	-413.9868469238282	483.6588134765626	-1050.0009765625	-364.7974853515626	458.0999145507814	-945.0308837890627	-361.9809875488282	331.0048828125001	-1021.768127441406	-392.1497497558595	291.1838073730469	-1095.244262695313	-358.4211730957032	289.1506042480469	-1063.586181640625	-363.5914916992188	206.0708770751954	-1047.842895507813	-412.2537231445314	84.94971466064455	-1124.026733398438	-380.9327392578126	90.93773651123048	-1043.401611328125	-459.5981750488282	41.42615509033204	-1076.42431640625	-250.9439697265626	64.77910614013673	-1072.565063476563	-247.1989288330079	65.82558441162111	-1112.21484375	-268.9555053710938	49.44487762451173	-1160.7783203125	-460.5370178222657	672.0485839843751	-674.0545654296876	-429.4180908203126	613.9844360351564	-678.6227416992189	-395.0551757812501	614.4918823242189	-684.6806640625001	-462.747772216797	540.3809204101564	-694.7349853515626	-470.1997680664064	477.4415588378907	-702.3695068359376	-442.6042785644532	475.1270141601564	-817.134460449219	-436.1099243164064	342.2696533203126	-726.2258911132814	-508.0021972656251	262.4738159179688	-707.4085693359376	-461.5523986816407	259.2803344726563	-715.7853393554689	-446.7038574218751	214.5821075439454	-750.4631958007814	-514.7476196289064	75.59327697753908	-731.2793579101564	-481.3866577148439	91.06728363037111	-809.4434204101565	-559.7634887695314	49.77980804443361	-787.7033691406252	-353.4769592285157	50.95307922363283	-765.3710327148439	-358.3937683105469	55.03537368774415	-720.1563720703126	-394.4927673339845	34.98611450195313	-671.9810180664064	
